<svg width="24" height="24" viewBox="0 0 24 24" fill="none" xmlns="http://www.w3.org/2000/svg">
<path fill-rule="evenodd" clip-rule="evenodd" d="M3.3749 10.8879C8.74359 8.62993 12.3236 7.14134 14.1148 6.42212C19.2292 4.36862 20.2919 4.0119 20.9846 4.00013C21.1369 3.99753 21.4776 4.03398 21.6982 4.20682C21.8845 4.35275 21.9358 4.5499 21.9603 4.68826C21.9848 4.82663 22.0154 5.14183 21.9911 5.38811C21.714 8.1992 20.5147 15.021 19.9046 18.1694C19.6465 19.5017 19.1382 19.9484 18.6461 19.9921C17.5766 20.0871 16.7645 19.3098 15.7287 18.6543C14.1078 17.6287 13.1921 16.9902 11.6188 15.9893C9.80053 14.8327 10.9792 14.1969 12.0155 13.158C12.2866 12.8861 16.9987 8.74868 17.0899 8.37335C17.1013 8.32641 17.1119 8.15143 17.0042 8.05904C16.8965 7.96664 16.7376 7.99824 16.6229 8.02337C16.4604 8.05898 13.871 9.71112 8.85486 12.9798C8.11988 13.467 7.45416 13.7044 6.8577 13.6919C6.20015 13.6782 4.93528 13.333 3.99498 13.038C2.84166 12.6761 1.92503 12.4847 2.00485 11.8701C2.04642 11.55 2.5031 11.2226 3.3749 10.8879Z" fill="#0E1112"/>
</svg>
